PathFileType	4	(X/Y/Z)	C:\My Captures\DataSMARTClinic\0004~001 ID\0004~aa~STRATO_01\Standing_STRATO_ID_01.trc
DataRate	CameraRate	NumFrames	NumMarkers	Units	OrigDataRate	OrigDataStartFrame	OrigNumFrames
250.00	250.00	8	22	mm	250.00	2353	2711
Frame#	Time	r.should			l.should			c7			r.asis			l.asis			sacrum			r.bar1			l.bar1			r.knee1			l.knee1			r.bar2			r.mall			l.bar2			l.mall			r.met			r.heel			l.heel			l.met			r.mallm			l.mallm			r.kneem			l.kneem			
		X1	Y1	Z1	X2	Y2	Z2	X3	Y3	Z3	X4	Y4	Z4	X5	Y5	Z5	X6	Y6	Z6	X7	Y7	Z7	X8	Y8	Z8	X9	Y9	Z9	X10	Y10	Z10	X11	Y11	Z11	X12	Y12	Z12	X13	Y13	Z13	X14	Y14	Z14	X15	Y15	Z15	X16	Y16	Z16	X17	Y17	Z17	X18	Y18	Z18	X19	Y19	Z19	X20	Y20	Z20	X21	Y21	Z21	X22	Y22	Z22	

2352	9.408000	877.693295	1282.147408	340.023875	837.815404	1281.376481	36.479376	770.273864	1345.995188	189.425513	930.881739	873.647332	344.014913	950.546086	874.338090	76.060407	736.352384	900.106013	193.138808	858.567238	785.516381	387.003869	891.658545	774.086833	15.352549	837.090850	438.431799	355.397612	847.520471	434.744745	36.974441	817.830920	377.955765	360.360146	810.010374	79.362169	332.377762	839.360237	367.444813	31.288981	818.602979	75.897209	48.773795	933.962405	43.965809	313.327104	750.245273	43.718256	291.591525	748.947024	43.082364	81.876442	944.806457	41.351371	83.375745	812.082708	76.035306	252.442360	822.078645	81.983574	125.884444	822.955251	410.395265	228.300303	838.060856	406.295270	163.411707	
2353	9.412000	877.698541	1282.151937	340.018004	837.833047	1281.382322	36.480930	770.283818	1345.995069	189.431518	930.861831	873.645008	344.022304	950.579226	874.364495	76.064043	736.364186	900.105238	193.140119	858.577073	785.513520	387.003690	891.654491	774.093747	15.339796	837.108016	438.450128	355.399132	847.511411	434.738994	36.974814	817.835569	377.969295	360.366344	810.003221	79.351351	332.377285	839.384019	367.445678	31.290758	818.608999	75.912304	48.761763	933.962464	43.961786	313.316703	750.223398	43.699861	291.584969	750.688314	42.743232	82.904331	944.804132	41.349094	83.371483	812.087059	76.037109	252.439559	822.088659	81.985421	125.888944	822.957754	410.391271	228.298724	838.057220	406.306893	163.398504	
2354	9.416000	877.705812	1282.163143	340.023071	837.836981	1281.385183	36.482103	770.302117	1346.003890	189.434528	930.868685	873.650968	344.013870	950.601697	874.377608	76.057933	736.351013	900.112748	193.142071	858.595014	785.515547	386.989534	891.700029	774.110973	15.365943	837.131977	438.456118	355.398655	847.502530	434.740096	36.979653	817.845821	377.979875	360.364497	810.004413	79.349868	332.379311	839.390337	367.460847	31.295780	818.623543	75.922936	48.754610	933.965087	43.965105	313.315690	750.201702	43.718901	291.599691	751.103997	42.656649	83.159961	944.812477	41.354895	83.370745	812.090576	76.045319	252.437294	822.103500	81.995979	125.898778	822.956562	410.401672	228.299707	838.050187	406.316280	163.398907	
2355	9.420000	877.711415	1282.158613	340.026796	837.843120	1281.386256	36.480460	770.305097	1346.001387	189.432442	930.897951	873.661518	344.017416	950.622976	874.390841	76.062299	736.346304	900.117934	193.150282	858.572960	785.539865	386.994600	891.744077	774.110079	15.369667	837.136209	438.456386	355.392486	847.505331	434.745312	36.985014	817.861497	377.975702	360.359490	810.008645	79.362080	332.381368	839.378119	367.473662	31.322513	818.619609	75.924955	48.757475	933.963060	43.980505	313.317835	750.191212	43.721817	291.623950	751.214266	42.649236	83.224401	944.812059	41.365910	83.371550	812.087178	76.053590	252.440542	822.108746	82.001768	125.894785	822.962224	410.408437	228.300631	838.053942	406.322718	163.402215	
2356	9.424000	877.727509	1282.161951	340.021223	837.857604	1281.386137	36.491081	770.308971	1346.007466	189.424917	930.924177	873.670697	344.011426	950.625956	874.398589	76.062962	736.352921	900.122046	193.147361	858.606458	785.538912	386.999726	891.728520	774.104834	15.367632	837.144196	438.457549	355.392933	847.517490	434.759557	36.982991	817.865133	377.974153	360.359550	810.013950	79.369187	332.380652	839.360833	367.452174	31.315550	818.615496	75.928472	48.761673	933.954656	43.987446	313.311219	750.144064	43.747220	291.637123	751.241684	42.632844	83.223537	944.816351	41.374922	83.366841	812.077224	76.067746	252.440482	822.121263	82.012907	125.877604	822.963834	410.416424	228.300557	838.057220	406.318665	163.397431	
2357	9.428000	877.743423	1282.164454	340.017557	837.866724	1281.391263	36.501836	770.287931	1346.025705	189.446151	930.954218	873.687625	344.020575	950.617671	874.395192	76.061152	736.357808	900.126815	193.149835	858.593702	785.543978	387.004852	891.778827	774.121404	15.369413	837.145388	438.467503	355.392545	847.533524	434.766710	36.983412	817.854762	377.980858	360.367626	810.004234	79.379059	332.377911	839.346468	367.435515	31.306051	818.624020	75.935699	48.759755	933.958650	43.995451	313.312471	750.152230	43.764766	291.629761	751.254082	42.639848	83.227880	944.821358	41.378219	83.363488	812.066674	76.077804	252.440333	822.125077	82.024939	125.869721	822.965264	410.416484	228.312358	838.065863	406.336308	163.402870	
2358	9.432000	877.750814	1282.173157	340.017974	837.866008	1281.400323	36.503397	770.329654	1346.023321	189.446524	930.973887	873.688161	344.024956	950.613320	874.397516	76.060630	736.362457	900.135577	193.156481	858.569503	785.546184	387.011498	891.734302	774.114728	15.360184	837.152183	438.460857	355.392098	847.532153	434.771121	36.981892	817.858934	377.983063	360.375017	810.000420	79.377614	332.373679	839.373529	367.441714	31.305276	818.619192	75.934112	48.753724	933.963895	44.003189	313.311100	750.193000	43.765277	291.628480	751.264334	42.657875	83.241165	944.814622	41.385863	83.365411	812.076151	76.085195	252.434790	822.124004	82.029216	125.872850	822.972417	410.410583	228.318483	838.063538	406.333059	163.408399	
2359	9.436000	877.755702	1282.180548	340.023667	837.855041	1281.402707	36.495849	770.321846	1346.023083	189.449534	930.947363	873.682439	344.027638	950.626194	874.409676	76.061763	736.356914	900.140762	193.163574	858.572543	785.543859	387.002379	891.775727	774.112701	15.403962	837.148845	438.475788	355.383009	847.538233	434.772938	36.987055	817.865133	377.989352	360.376179	810.008883	79.379372	332.371324	839.389324	367.451161	31.294253	818.609774	75.931169	48.751988	933.970809	44.006553	313.297689	750.163972	43.769635	291.631460	751.264572	42.674456	83.247922	944.818974	41.388676	83.360560	812.077284	76.088682	252.429128	822.112978	82.031138	125.871316	822.965860	410.408258	228.322506	838.052988	406.334400	163.409084	
